Coordinates
version=1
nRows=13
nColumns=40
inDegrees=yes

Units are S.I. units (second, meters, Newtons, ...)
If the header above contains a line with 'inDegrees', this indicates whether rotational values are in degrees (yes) or radians (no).

endheader
time	pelvis_tilt	pelvis_list	pelvis_rotation	pelvis_tx	pelvis_ty	pelvis_tz	hip_flexion_r	hip_adduction_r	hip_rotation_r	knee_angle_r	knee_angle_r_beta	ankle_angle_r	subtalar_angle_r	mtp_angle_r	hip_flexion_l	hip_adduction_l	hip_rotation_l	knee_angle_l	knee_angle_l_beta	ankle_angle_l	subtalar_angle_l	mtp_angle_l	lumbar_extension	lumbar_bending	lumbar_rotation	arm_flex_r	arm_add_r	arm_rot_r	elbow_flex_r	pro_sup_r	wrist_flex_r	wrist_dev_r	arm_flex_l	arm_add_l	arm_rot_l	elbow_flex_l	pro_sup_l	wrist_flex_l	wrist_dev_l
      2.50000000	    -18.93074807	     -5.39466567	     -0.92191824	     -0.30009384	      0.83622626	     -0.98234968	     23.86315172	     -5.24028172	      7.68027959	     88.62788439	      1.54684839	    -20.99969059	      0.00000000	      0.00000000	     57.20962362	     -6.46966884	     -2.95690860	     68.54022750	      1.19625264	     16.45351596	      0.00000000	      0.00000000	    -10.26000509	     -6.33180291	      9.59601276	     68.94057605	     -8.60248059	     25.10339384	     80.95525981	     77.77602170	      0.00000000	      0.00000000	     70.74752924	    -11.89433657	     30.30590571	     77.45819458	     71.59007093	      0.00000000	      0.00000000
      2.50500000	    -19.07706441	     -5.37127840	     -0.95375939	     -0.30047399	      0.83533314	     -0.98209523	     23.95072202	     -5.21475913	      7.75124453	     88.65313467	      1.54728909	    -20.87711967	      0.00000000	      0.00000000	     57.38789052	     -6.46967394	     -2.98769785	     68.59623462	      1.19723015	     16.74066745	      0.00000000	      0.00000000	    -10.24367299	     -6.38583525	      9.64030498	     68.99765232	     -8.59046993	     24.98042899	     80.91239612	     80.10662688	      0.00000000	      0.00000000	     70.75784439	    -11.83805840	     30.15666093	     77.41144041	     72.50258144	      0.00000000	      0.00000000
      2.51000000	    -19.04500825	     -5.37122910	     -1.02690265	     -0.30116232	      0.83471590	     -0.98170678	     23.87992975	     -5.11895631	      7.92497223	     88.63102805	      1.54690326	    -20.97944410	      0.00000000	      0.00000000	     57.48368699	     -6.57379694	     -3.04309395	     68.74729563	      1.19986666	     16.77531125	      0.00000000	      0.00000000	    -10.46652807	     -6.44277783	      9.72688341	     69.14219105	     -8.56113522	     24.90887403	     80.89975278	     80.36895516	      0.00000000	      0.00000000	     70.94529207	    -11.81668545	     30.18420753	     77.34785125	     72.66893521	      0.00000000	      0.00000000
      2.51500000	    -19.13468399	     -5.42134113	     -1.08626442	     -0.30140345	      0.83383258	     -0.98139778	     23.85313456	     -4.97874252	      7.61662338	     88.51192946	      1.54482460	    -21.72543072	      0.00000000	      0.00000000	     57.71002542	     -6.66495223	     -2.99491675	     68.96234033	      1.20361990	     16.85237300	      0.00000000	      0.00000000	    -10.49310074	     -6.40500349	      9.74074130	     69.22268124	     -8.47576098	     24.94306167	     80.80029481	     80.65192356	      0.00000000	      0.00000000	     70.95696894	    -11.89591610	     30.15970530	     77.41151380	     71.91573105	      0.00000000	      0.00000000
      2.52000000	    -19.30429202	     -5.30204779	     -1.12935409	     -0.30142510	      0.83267006	     -0.98138102	     23.97544736	     -5.14378935	      8.02154955	     88.62765804	      1.54684444	    -20.85050655	      0.00000000	      0.00000000	     57.95361844	     -6.58353767	     -3.06294564	     69.11909552	      1.20635579	     16.97748868	      0.00000000	      0.00000000	    -10.38958374	     -6.54915757	      9.77863090	     69.19472512	     -8.49154091	     24.94156533	     80.83628393	     80.44845560	      0.00000000	      0.00000000	     70.91889140	    -11.88567681	     30.12177666	     77.43916470	     72.42978111	      0.00000000	      0.00000000
      2.52500000	    -19.37993250	     -5.30740352	     -1.15509924	     -0.30174110	      0.83176031	     -0.98117836	     23.99926854	     -5.09806667	      8.02702847	     88.69346656	      1.54799302	    -20.71395176	      0.00000000	      0.00000000	     58.16957574	     -6.59433577	     -3.00835190	     69.32972633	      1.21003199	     17.06885406	      0.00000000	      0.00000000	    -10.42813756	     -6.56486466	      9.82929064	     69.27161346	     -8.48248988	     24.92183434	     80.79994452	     80.66866177	      0.00000000	      0.00000000	     70.98763602	    -11.84216341	     30.11452573	     77.35026736	     72.57523560	      0.00000000	      0.00000000
      2.53000000	    -19.49972869	     -5.24979640	     -1.20252285	     -0.30216445	      0.83084467	     -0.98094484	     24.03136396	     -5.10954917	      8.22211626	     88.58699281	      1.54613470	    -21.05740415	      0.00000000	      0.00000000	     58.41275925	     -6.58033100	     -3.02599424	     69.50641094	      1.21311572	     17.14449832	      0.00000000	      0.00000000	    -10.42958190	     -6.66148568	      9.81997023	     69.34595580	     -8.42866417	     24.95750605	     80.72440518	     80.33264657	      0.00000000	      0.00000000	     71.04631997	    -11.89471398	     30.08004801	     77.34654578	     72.86536527	      0.00000000	      0.00000000
      2.53500000	    -19.59152256	     -5.25444776	     -1.27697097	     -0.30249830	      0.82995626	     -0.98067893	     24.04573313	     -5.01927852	      8.31660110	     88.57919750	      1.54599865	    -20.96083978	      0.00000000	      0.00000000	     58.62214486	     -6.61864552	     -2.97279746	     69.67691757	      1.21609162	     17.21061663	      0.00000000	      0.00000000	    -10.45101871	     -6.68020614	      9.89774468	     69.44463966	     -8.41556767	     25.01770816	     80.70404965	     80.35124226	      0.00000000	      0.00000000	     71.09927496	    -11.89424308	     30.05158407	     77.32439117	     72.63069550	      0.00000000	      0.00000000
      2.54000000	    -19.63965110	     -5.20287108	     -1.30532406	     -0.30278109	      0.82903899	     -0.98050091	     24.02142369	     -5.05421907	      8.31895830	     88.62062279	      1.54672165	    -20.58465454	      0.00000000	      0.00000000	     58.78494821	     -6.59002085	     -2.97174272	     69.86482443	      1.21937122	     17.33196001	      0.00000000	      0.00000000	    -10.51752610	     -6.76059039	      9.91455139	     69.49890756	     -8.41155128	     25.03776329	     80.70671649	     80.45322113	      0.00000000	      0.00000000	     71.18264596	    -11.90803149	     30.09327030	     77.26074809	     73.15866921	      0.00000000	      0.00000000
      2.54500000	    -19.67327060	     -5.13551257	     -1.37026501	     -0.30340408	      0.82827881	     -0.98021238	     24.03399233	     -5.06627167	      8.42786023	     88.65318320	      1.54728994	    -20.57893998	      0.00000000	      0.00000000	     58.93462533	     -6.58252264	     -2.98288695	     70.00144133	      1.22175563	     17.37498665	      0.00000000	      0.00000000	    -10.64127669	     -6.85772398	      9.91175519	     69.69124198	     -8.31907735	     25.08074559	     80.57201178	     80.28336364	      0.00000000	      0.00000000	     71.30760741	    -11.98940541	     30.04487518	     77.25816891	     72.81295452	      0.00000000	      0.00000000
      2.55000000	    -19.83395174	     -5.13777610	     -1.37606590	     -0.30346244	      0.82729112	     -0.98013529	     24.07231981	     -5.05727132	      8.45416027	     88.52741186	      1.54509482	    -20.85873195	      0.00000000	      0.00000000	     59.20674975	     -6.57018549	     -2.94150716	     70.18320565	      1.22492802	     17.44836030	      0.00000000	      0.00000000	    -10.56337799	     -6.87532616	      9.93145112	     69.64082914	     -8.32136283	     25.08194386	     80.61368887	     79.67918909	      0.00000000	      0.00000000	     71.30082304	    -11.95622221	     30.05578983	     77.25903073	     72.26708998	      0.00000000	      0.00000000
      2.55500000	    -19.87415498	     -5.05243706	     -1.45542231	     -0.30395857	      0.82627402	     -0.97983108	     24.05686222	     -5.11179270	      8.57917953	     88.53051469	      1.54514897	    -20.88548285	      0.00000000	      0.00000000	     59.39645129	     -6.57635910	     -2.98118169	     70.41023309	      1.22889039	     17.48428261	      0.00000000	      0.00000000	    -10.63494168	     -6.99576094	      9.98034953	     69.78154113	     -8.29949642	     25.08257132	     80.52465363	     80.36188541	      0.00000000	      0.00000000	     71.42724288	    -12.00801862	     30.10424882	     77.18535608	     72.87310731	      0.00000000	      0.00000000
      2.56000000	    -19.89157302	     -5.02605337	     -1.41440427	     -0.30440021	      0.82559116	     -0.97979883	     23.99526196	     -5.11847530	      8.56130721	     88.52933232	      1.54512833	    -20.93946101	      0.00000000	      0.00000000	     59.52685831	     -6.48911974	     -2.90330799	     70.54086327	      1.23117032	     17.57733465	      0.00000000	      0.00000000	    -10.77672948	     -7.02986418	      9.90308136	     69.88642199	     -8.24544097	     25.09730087	     80.48267770	     80.47047016	      0.00000000	      0.00000000	     71.50636154	    -12.04877916	     30.10574397	     77.18850659	     72.65041474	      0.00000000	      0.00000000
